PathFileType	4	(X/Y/Z)	/Users/itak/Documents/Research/Walk-IL/dataset/trc/00522_00183.trc
DataRate	CameraRate	NumFrames	NumMarkers	Units	OrigDataRate	OrigDataStartFrame	OrigNumFrames
100.000000	100.000000	4	54	mm	100.000000	262	524
Frame#	Time	RPSI			LPSI			L3			STRN			T10			C7			CLAV			RBAK			LBAK			LSHO			LUPA			LAEL			LAOL			LWTS			LWPS			LFRA			LIFD			LHPS			LHTS			RSHO			RUPA			RAEL			RAOL			RWTS			RWPS			RFRA			RIFD			RHTS			RHPS			RBHD			LFHD			RFHD			LBHD			LHIP			RHIP			RASI			LASI			LKNE			LTHI			LANK			LTIP			LTOE			LMT1			LMT5			LHEE			RKNE			RANK			RTIP			RTOE			RMT1			RMT5			RHEE			RTHI			*53			
		X1	Y1	Z1	X2	Y2	Z2	X3	Y3	Z3	X4	Y4	Z4	X5	Y5	Z5	X6	Y6	Z6	X7	Y7	Z7	X8	Y8	Z8	X9	Y9	Z9	X10	Y10	Z10	X11	Y11	Z11	X12	Y12	Z12	X13	Y13	Z13	X14	Y14	Z14	X15	Y15	Z15	X16	Y16	Z16	X17	Y17	Z17	X18	Y18	Z18	X19	Y19	Z19	X20	Y20	Z20	X21	Y21	Z21	X22	Y22	Z22	X23	Y23	Z23	X24	Y24	Z24	X25	Y25	Z25	X26	Y26	Z26	X27	Y27	Z27	X28	Y28	Z28	X29	Y29	Z29	X30	Y30	Z30	X31	Y31	Z31	X32	Y32	Z32	X33	Y33	Z33	X34	Y34	Z34	X35	Y35	Z35	X36	Y36	Z36	X37	Y37	Z37	X38	Y38	Z38	X39	Y39	Z39	X40	Y40	Z40	X41	Y41	Z41	X42	Y42	Z42	X43	Y43	Z43	X44	Y44	Z44	X45	Y45	Z45	X46	Y46	Z46	X47	Y47	Z47	X48	Y48	Z48	X49	Y49	Z49	X50	Y50	Z50	X51	Y51	Z51	X52	Y52	Z52	X53	Y53	Z53	X54	Y54	Z54	

263	2.62	-227.5511779785156	945.3450927734375	-121.1904754638672	-136.3837890625	958.0573120117188	-203.679931640625	-177.4203186035156	1032.306762695312	-163.8699798583984	-11.55671405792236	1191.912109375	-5.375031471252441	-186.4003295898438	1137.192749023438	-162.1971740722656	-152.8139953613281	1364.643676757812	-119.3340911865234	-38.61542510986328	1287.97314453125	-23.85359573364258	-248.0904998779297	1243.405639648438	-94.80338287353516	-114.6905136108398	1313.5888671875	-203.7350769042969	2.231226921081543	1364.533203125	-195.4922180175781	37.30829620361328	1243.870971679688	-256.6477355957031	70.94760894775391	1036.592529296875	-283.1376953125	-28.16698455810547	1023.211975097656	-276.4085693359375	124.4040222167969	846.7818603515625	-209.2804260253906	90.04278564453125	813.100830078125	-290.4947204589844	89.87755584716797	951.89697265625	-278.8409118652344	130.4444885253906	689.9521484375	-209.6776733398438	110.9683609008789	760.6892700195312	-275.8536682128906	148.0758361816406	771.349609375	-223.5552520751953	-211.3321228027344	1354.285034179688	25.33342361450195	-263.9579467773438	1288.11474609375	51.62018585205078	-307.7660827636719	1021.772705078125	68.04796600341797	-317.3089294433594	1009.732360839844	2.987662792205811	-221.0043029785156	814.2236938476562	105.5874557495117	-308.3540344238281	793.9982299804688	86.41565704345703	-313.2306518554688	967.6465454101562	72.16357421875	-230.7240142822266	654.8106079101562	102.7042694091797	-231.8987884521484	721.238037109375	128.9501495361328	-294.9255676269531	722.894775390625	98.37263488769531	-175.3694915771484	1515.891235351562	-20.33262062072754	16.20893859863281	1570.999633789062	-6.150716304779053	-83.12023162841797	1557.927001953125	72.65870666503906	-60.14461898803711	1529.483276367188	-130.6210174560547	36.99063110351562	896.460205078125	-222.6218719482422	-231.4767303466797	846.978759765625	46.08560180664062	-120.001091003418	902.8792724609375	61.53242874145508	52.48183059692383	928.8812866210938	-107.8375854492188	26.76558113098145	474.3081665039062	-184.9488067626953	50.34480667114258	632.8717041015625	-193.4370574951172	-66.45644378662109	46.37764358520508	-262.0594787597656	3.749192953109741	324.2554626464844	-211.5237731933594	43.41583251953125	36.65138244628906	-86.24739837646484	-36.7072868347168	41.77425003051758	-111.4580688476562	21.31168937683105	39.57293701171875	-196.9806671142578	-141.2936096191406	43.56831359863281	-243.9416198730469	-70.41780090332031	495.9044189453125	100.7363128662109	-221.396484375	145.5103912353516	-90.96278381347656	-87.62358856201172	367.7991943359375	66.97472381591797	-103.2794723510742	53.50168228149414	36.12368774414062	-96.79900360107422	73.27508544921875	-33.6083869934082	-188.0200958251953	90.44761657714844	-1.162071824073792	-206.0054931640625	159.2605438232422	-158.3458251953125	-176.9684143066406	730.4808349609375	80.81930541992188	nan	nan	nan	
264	2.63	-220.8611145019531	945.177490234375	-116.806884765625	-129.2724914550781	957.578125	-198.8753509521484	-169.9245300292969	1031.859375	-159.6532745361328	-5.170160293579102	1190.976196289062	0.5024828910827637	-178.6417083740234	1136.859619140625	-158.3165740966797	-145.0692291259766	1364.178344726562	-114.404914855957	-31.97996711730957	1287.114501953125	-17.9617805480957	-240.7991485595703	1243.099365234375	-91.34731292724609	-106.1285934448242	1313.260498046875	-198.5833282470703	10.7301197052002	1364.203979492188	-188.9714202880859	46.70061874389648	1243.607299804688	-249.8570098876953	81.58354187011719	1036.463500976562	-275.8067321777344	-17.53679084777832	1022.708618164062	-270.5722351074219	135.3075408935547	847.671142578125	-200.3013305664062	102.4524459838867	813.2749633789062	-281.8860473632812	100.9313354492188	952.02783203125	-270.8870239257812	143.0163116455078	690.932373046875	-199.7318420410156	123.7484741210938	761.0973510742188	-266.6203918457031	159.8829040527344	772.4270629882812	-213.8602905273438	-205.17431640625	1353.42822265625	29.58452987670898	-258.2012634277344	1287.329467773438	54.7452392578125	-304.3225708007812	1021.432861328125	68.85458374023438	-312.5707397460938	1009.589904785156	3.636035203933716	-219.5220794677734	813.3364868164062	107.7362976074219	-306.3890075683594	793.6051025390625	86.44443511962891	-310.1416625976562	967.20703125	72.55304718017578	-230.0225219726562	654.0191650390625	104.4926528930664	-231.4524993896484	720.4251708984375	130.7693328857422	-293.6829223632812	722.4207763671875	98.69292449951172	-168.8348236083984	1514.957153320312	-14.83419322967529	22.68519973754883	1570.225830078125	1.486823916435242	-77.45450592041016	1556.69384765625	79.1263427734375	-52.31212997436523	1529.186767578125	-123.9293899536133	44.13019943237305	895.4050903320312	-217.1394958496094	-225.2371978759766	847.3533935546875	50.84482192993164	-113.7607955932617	902.7734985351562	66.35746765136719	59.49172592163086	927.7391967773438	-102.4615478515625	30.3721752166748	473.3053588867188	-182.7994689941406	55.19276428222656	631.8124389648438	-189.7435455322266	-66.44190979003906	46.62934875488281	-261.7800903320312	5.490284442901611	323.6458435058594	-210.0376434326172	43.58574295043945	36.61380767822266	-86.09297180175781	-36.67279052734375	41.62532806396484	-111.2089004516602	21.32709312438965	39.54139709472656	-196.7782135009766	-141.5002746582031	43.70720291137695	-243.8221893310547	-61.74173736572266	497.8531494140625	109.2060089111328	-198.1295013427734	135.5818634033203	-74.46448516845703	-74.90632629394531	367.3489379882812	78.34935760498047	-79.38620758056641	53.32101058959961	58.4533805847168	-72.24524688720703	70.29433441162109	-11.96012783050537	-164.6360931396484	85.49266815185547	18.0815486907959	-182.0210266113281	147.1655578613281	-142.0586547851562	-170.6061859130859	731.5794677734375	86.82651519775391	nan	nan	nan	
265	2.64	-214.0892333984375	944.8220825195312	-112.3060150146484	-122.1949844360352	956.9072265625	-194.0395050048828	-162.5274047851562	1031.234375	-155.3010101318359	1.132490873336792	1189.82421875	6.389007091522217	-171.0112915039062	1136.383911132812	-154.4061737060547	-137.3849945068359	1363.5400390625	-109.3723983764648	-25.37894248962402	1286.04638671875	-12.02885913848877	-233.5508117675781	1242.61669921875	-87.70493316650391	-97.69327545166016	1312.75634765625	-193.3453063964844	19.1202449798584	1363.633911132812	-182.4249267578125	55.91381072998047	1243.066528320312	-243.0071868896484	92.06142425537109	1036.0703125	-268.3912353515625	-7.033877372741699	1021.901123046875	-264.5848693847656	146.1374053955078	848.3681640625	-191.2280578613281	114.7663879394531	813.2511596679688	-273.1303405761719	111.8233795166016	951.9053955078125	-262.8409423828125	155.6170959472656	691.7734375	-189.6234741210938	136.4317932128906	761.3292236328125	-257.2375793457031	171.6490020751953	773.3531494140625	-204.0576782226562	-199.0118560791016	1352.410278320312	33.96526718139648	-252.42236328125	1286.37060546875	58.04496765136719	-300.7267456054688	1020.948364257812	69.72351837158203	-307.6819458007812	1009.269104003906	4.393875122070312	-217.984375	812.2667846679688	109.9248275756836	-304.3475036621094	793.0811157226562	86.54666900634766	-306.9236755371094	966.6080322265625	73.02558898925781	-229.3650665283203	653.0542602539062	106.3116226196289	-230.9996185302734	719.4462280273438	132.6037445068359	-292.392578125	721.8206176757812	99.03656768798828	-162.3487091064453	1513.795532226562	-9.265491485595703	29.0681037902832	1569.303100585938	9.183252334594727	-71.87629699707031	1555.292602539062	85.64218139648438	-44.57464981079102	1528.67626953125	-117.158203125	51.09964370727539	894.2013549804688	-211.6084899902344	-219.0416107177734	847.4739379882812	55.59596252441406	-107.5880584716797	902.4966430664062	71.31864929199219	66.39072418212891	926.433837890625	-97.01077270507812	33.87710189819336	472.222900390625	-180.3565979003906	60.00858306884766	630.5775756835938	-185.7919921875	-66.48405456542969	46.92946624755859	-261.4460754394531	7.209966659545898	322.9623413085938	-208.3548736572266	43.72393035888672	36.54664993286133	-85.90407562255859	-36.68186187744141	41.42292022705078	-110.9252243041992	21.3122615814209	39.56231689453125	-196.530517578125	-141.7398071289062	43.84596633911133	-243.6248474121094	-53.61933517456055	499.3935852050781	117.415397644043	-174.9925994873047	125.7337341308594	-56.95063781738281	-62.66481781005859	366.6969604492188	89.84111022949219	-55.83344650268555	53.48042678833008	81.24266815185547	-48.01024627685547	67.697021484375	10.26869583129883	-141.4129638671875	80.71413421630859	38.08418273925781	-158.1192321777344	135.1532897949219	-124.7058181762695	-164.5718231201172	732.2950439453125	92.69670867919922	nan	nan	nan	
266	2.65	-207.2329559326172	944.28173828125	-107.6939392089844	-115.1509475708008	956.0572509765625	-189.1596527099609	-155.2389373779297	1030.456298828125	-150.8132781982422	7.365875720977783	1188.489501953125	12.2844181060791	-163.5181427001953	1135.777465820312	-150.4371185302734	-129.7747192382812	1362.74560546875	-104.2289810180664	-18.80908966064453	1284.803466796875	-6.058126449584961	-226.3542175292969	1241.972290039062	-83.8511962890625	-89.40422821044922	1312.094360351562	-188.0086059570312	27.38430023193359	1362.850341796875	-175.8606414794922	64.93092346191406	1242.281616210938	-236.1075134277344	102.3738098144531	1035.444946289062	-260.8822631835938	3.327262163162231	1020.819763183594	-258.4249267578125	156.8703308105469	848.8818969726562	-182.0628509521484	126.9560623168945	813.05712890625	-264.2287902832031	122.5485610961914	951.5614624023438	-254.6911315917969	168.1559295654297	692.4743041992188	-179.4096527099609	148.9861907958984	761.4117431640625	-247.7242279052734	183.34619140625	774.132080078125	-194.1615753173828	-192.8475189208984	1351.25439453125	38.48162078857422	-246.6252899169922	1285.271240234375	61.5357551574707	-296.9683532714844	1020.341613769531	70.70151519775391	-302.6448059082031	1008.799499511719	5.305473327636719	-216.3769226074219	811.03271484375	112.1533050537109	-302.2180786132812	792.4430541992188	86.73684692382812	-303.5755310058594	965.8865356445312	73.64379119873047	-228.7259368896484	651.9340209960938	108.1253204345703	-230.5183563232422	718.3115234375	134.4344940185547	-291.0418090820312	721.114501953125	99.40338134765625	-155.8864288330078	1512.44677734375	-3.640333890914917	35.37417984008789	1568.232055664062	16.93400001525879	-66.365478515625	1553.739135742188	92.21285247802734	-36.93207168579102	1527.976684570312	-110.3112335205078	57.88241958618164	892.8626708984375	-206.0327453613281	-212.8997192382812	847.349365234375	60.36820220947266	-101.4841537475586	902.0724487304688	76.41307830810547	73.17303466796875	924.9889526367188	-91.47516632080078	37.24520492553711	471.0798950195312	-177.6351470947266	64.77727508544922	629.196533203125	-181.5672912597656	-66.58379364013672	47.27465057373047	-261.0604858398438	8.900727272033691	322.2228088378906	-206.4950103759766	43.81635284423828	36.4388542175293	-85.69329071044922	-36.74288940429688	41.17579650878906	-110.6261367797852	21.25871658325195	39.6333122253418	-196.2426910400391	-142.0037231445312	44.00076293945312	-243.3654174804688	-46.04821395874023	500.5105285644531	125.3426055908203	-152.0264434814453	116.0779190063477	-38.47620010375977	-50.92017364501953	365.8580932617188	101.4063415527344	-32.6698112487793	54.03555297851562	104.4085235595703	-24.14908790588379	65.55146026611328	32.99424743652344	-118.3992691040039	76.19937133789062	58.78235244750977	-134.3167266845703	123.3556976318359	-106.3703460693359	-158.8285064697266	732.6238403320312	98.44895172119141	nan	nan	nan	
